PathFileType	4	(X/Y/Z)	C:\Users\°ÂÌØÂü\Desktop\20210112\bx_n_0_1802-Unnamed.trc
DataRate	CameraRate	NumFrames	NumMarkers	Units	OrigDataRate	OrigDataStartFrame	OrigNumFrames
50.00	50.00	       4	0	mm	50.00	54	       425
Frame#	Time	
		

54	1.060	-573.03687	-3.21809	1053.20044	-580.43866	243.49933	1063.49353	-663.31982	288.00806	872.15155	-566.80750	-1.77670	800.55151	-570.46393	222.99565	790.00446	-675.22986	271.44183	742.77679	-710.08594	251.98286	642.95825	-679.98438	143.41380	576.86841	-655.97571	19.74908	516.81268	-714.55780	248.05978	576.11926	-663.78796	204.15359	534.00250	-756.08588	258.96817	502.76511	-715.73639	73.57764	214.91743	-649.19727	-66.32350	163.08203	-712.51208	150.44150	216.30943	-764.56439	225.55167	206.18460	-608.14636	-73.58913	159.18912	-882.51971	296.13675	144.74654	-672.10388	55.41050	155.58578	-597.28754	26.22652	165.87720	-551.27649	-31.25136	165.97672	-517.48273	-72.78654	143.51724	-588.50470	210.02840	173.86292	-654.17627	292.64203	156.37712	-616.81592	299.17990	158.43732	-552.81671	246.87773	166.37096	-528.11023	304.21655	146.67133	-687.80676	120.44760	1847.92017	-702.78723	292.23425	1528.37048	-794.14514	177.61002	185.58780	-679.25037	-69.74581	1537.72046	-790.95038	42.64335	176.44591	-775.29102	98.13598	1054.46021	-748.11694	-43.31052	489.41287	-756.24469	-15.95534	207.73363	-875.99792	-78.69180	141.55168	-639.77545	-69.35501	869.83136	-702.06903	-29.91994	567.54761	-674.21027	165.98135	156.93889	-580.04706	108.79101	1354.46399	-681.56067	78.38350	573.49603	-662.85693	-60.25305	757.24084	-691.31213	-32.66360	614.22021	
55	1.080	-572.78308	-3.34152	1053.18408	-580.55579	243.33870	1063.63672	-663.31982	288.00806	872.15155	-566.80750	-1.77670	800.55151	-570.31494	222.91479	790.01544	-675.34528	271.32278	742.84760	-709.97455	251.93948	642.90649	-679.55426	143.30519	576.84473	-655.99878	19.66092	516.98401	-714.46613	247.92729	575.92065	-663.93683	204.05310	534.01141	-756.02393	259.05673	502.81567	-715.81909	73.66285	214.96265	-649.17578	-66.36842	163.29608	-712.54919	150.30969	216.54869	-764.49445	225.47058	206.25157	-607.99878	-73.61963	159.54434	-882.50342	296.22003	144.72592	-671.59766	55.92199	156.24985	-597.15411	26.26270	165.80960	-551.37195	-31.34836	165.92487	-517.43011	-72.85855	143.62971	-588.45544	209.95322	173.86987	-654.10663	292.57501	156.42482	-616.85388	299.12299	158.40372	-552.98920	246.74161	166.32347	-528.12793	304.02591	146.71939	-687.78607	120.39931	1847.87317	-702.78271	292.19357	1528.33228	-794.14740	177.49890	185.72296	-679.09015	-69.77418	1537.84900	-791.08685	42.80068	176.37921	-775.13818	98.31849	1054.36304	-748.00146	-43.24027	489.21695	-756.20660	-16.03621	207.74405	-875.95648	-78.79716	141.44162	-639.70868	-69.51490	869.83893	-702.06903	-29.91994	567.54761	-674.28766	165.97862	157.10257	-580.07123	108.64483	1354.30579	-681.86090	78.39220	573.54352	-662.69751	-60.48766	757.46191	-691.32715	-32.99670	614.47125	
56	1.100	-572.85388	-3.37979	1053.25208	-580.41669	243.17522	1063.58716	-663.48346	287.33160	871.80750	-566.87140	-1.85735	800.48834	-570.44073	222.88470	790.05121	-675.36346	271.42374	742.93738	-710.36877	251.77458	642.91577	-680.00281	143.38373	576.83557	-656.27777	19.56724	516.91028	-714.37195	247.91502	575.80707	-663.80829	204.11087	534.07642	-756.18591	258.92676	502.90930	-715.79681	73.54744	215.09880	-649.24310	-66.13993	163.10074	-712.66895	150.64177	216.21107	-764.65259	225.27208	206.26151	-608.20007	-73.64625	159.38437	-882.64417	296.32358	144.88686	-671.43475	55.98367	156.19160	-597.28754	26.22652	165.87720	-551.26141	-31.13559	166.00310	-517.43011	-72.85855	143.62971	-588.45544	209.95322	173.86987	-654.10663	292.57501	156.42482	-616.88519	299.06082	158.38664	-552.99628	246.71349	166.37428	-528.14569	304.17987	146.55627	-688.04059	120.35489	1847.95422	-702.68402	292.10199	1528.34900	-794.09692	177.40010	185.62608	-679.18201	-69.79107	1537.75342	-790.94379	42.83705	176.43625	-775.42371	97.97594	1054.36584	-747.95148	-43.29387	489.10791	-756.18665	-16.00416	207.63937	-875.99792	-78.69180	141.55168	-639.80151	-69.60336	869.84058	-702.06903	-29.91994	567.54761	-674.28766	165.97862	157.10257	-580.04590	108.54253	1354.47986	-682.04706	78.22276	573.47736	-662.60938	-60.50352	757.28607	-691.52856	-32.74364	614.34357	
57	1.120	-572.85938	-3.53372	1053.20422	-580.41669	243.17522	1063.58716	-663.54669	287.80765	872.08417	-566.92975	-1.97411	800.45807	-570.43390	222.72211	790.11163	-675.25427	271.47556	743.11194	-710.19421	251.75607	642.78333	-679.63123	143.22061	576.73083	-656.23663	19.56196	516.79974	-714.41638	247.90477	575.70825	-663.97809	203.95584	533.90253	-756.18591	258.92676	502.90930	-715.91974	73.73910	215.06163	-649.19379	-66.42785	163.13812	-712.61072	150.53751	216.23094	-764.53564	225.55046	206.21222	-608.07678	-73.78914	159.57919	-882.35236	296.08725	144.73286	-671.97864	55.32276	155.67886	-597.24036	26.28044	165.75919	-551.36475	-31.23748	165.94444	-517.43011	-72.85855	143.62971	-588.50470	210.02840	173.86292	-654.17627	292.64203	156.37712	-616.86169	299.08887	158.39333	-552.68176	246.68501	166.30684	-528.22040	304.08075	146.69301	-688.34351	120.36660	1847.85266	-702.61322	292.05856	1528.27710	-794.09534	177.51581	185.67790	-679.07874	-69.89342	1537.82678	-790.95966	42.78810	176.37592	-775.28662	98.03904	1054.32483	-748.43787	-43.47836	489.23499	-756.24469	-15.95534	207.73363	-875.99792	-78.69180	141.55168	-639.79889	-69.67106	869.80280	-702.14178	-29.91029	567.64801	-674.32495	166.07243	157.10355	-579.56592	108.46567	1354.52600	-681.73828	78.10935	573.76904	-662.72308	-60.63169	757.36707	-691.62146	-32.83415	614.19537	
